IKResults
version=1
nRows=10
nColumns=67
inDegrees=yes

Units are S.I. units (second, meters, Newtons, ...)
Angles are in degrees.

endheader
time	pelvis_tilt	pelvis_list	pelvis_rotation	pelvis_tx	pelvis_ty	pelvis_tz	hip_flexion_r	hip_adduction_r	hip_rotation_r	knee_angle_r	knee_rot_r	knee_adduc_r	ankle_angle_r	ankle_rot_r	ankle_add_r	subtalar_angle_r	mtp_angle_r	mtp_rot_r	mtp_add_r	hip_flexion_l	hip_adduction_l	hip_rotation_l	knee_angle_l	knee_rot_l	knee_adduc_l	ankle_angle_l	ankle_rot_l	ankle_add_l	subtalar_angle_l	mtp_angle_l	mtp_rot_l	mtp_add_l	lumbar_extension	lumbar_bending	lumbar_rotation	neck_flexion	neck_lateral_bending	neck_rotation	arm_flex_r	arm_add_r	arm_rot_r	elbow_flex_r	elbow_rot_r	elbow_add_r	pro_sup_r	wrist_flex_r	wrist_adduc_r	wrist_rot_r	wrist_dev_r	hand_finger_flex_r	hand_finger_adduc_r	hand_finger_rot_r	arm_flex_l	arm_add_l	arm_rot_l	elbow_flex_l	elbow_rot_l	elbow_add_l	pro_sup_l	wrist_flex_l	wrist_adduc_l	wrist_rot_l	wrist_dev_l	hand_finger_flex_l	hand_finger_adduc_l	hand_finger_rot_l
      1.12500000	     16.40922970	     -4.92832614	      5.63447706	      0.27603397	      0.73068366	      0.58959016	      7.39532841	      7.19425778	      2.64406919	    -28.75992079	     -5.00000000	      2.13754205	      4.71206304	     -5.00000000	      5.00000000	     -8.81184248	     12.54328466	     -2.00000000	     -1.98848720	    -14.37137465	     -6.33925065	      6.70300731	    -61.72836567	      5.00000000	     -0.27872183	     -1.43280453	      1.74496544	      5.00000000	      3.70167395	     30.03817041	      2.00000000	     -1.36838569	    -30.35108720	      9.12941033	    -10.31269331	      0.00000000	      0.00000000	      0.00000000	      0.00000000	      0.00000000	      0.00000000	      0.00000000	      0.00000000	      0.00000000	     -0.00042092	      0.00000000	      0.00000000	      0.00000000	      0.00000000	      0.00000000	      0.00000000	      0.00000000	      0.00000000	      0.00000000	      0.00000000	      0.00000000	      0.00000000	      0.00000000	      0.00000000	      0.00000000	      0.00000000	      0.00000000	      0.00000000	      0.00000000	      0.00000000	      0.00000000
      1.13000000	     16.50877763	     -4.75076994	      5.69950641	      0.28177933	      0.73261003	      0.59043082	      6.49462311	      7.44137329	      2.94543681	    -28.29392798	     -5.00000000	      1.75524954	      4.77632632	     -5.00000000	      5.00000000	     -8.88923082	     12.52743047	     -2.00000000	     -1.99302989	    -13.17675740	     -6.07783591	      6.64300596	    -62.69408441	      5.00000000	     -0.22324726	     -1.35212999	      1.79279621	      5.00000000	      3.60545834	     30.02228055	      2.00000000	     -1.36290180	    -30.53658016	      8.76598867	    -10.16708027	      0.00000000	      0.00000000	      0.00000000	      0.00000000	      0.00000000	      0.00000000	      0.00000000	      0.00000000	      0.00000000	     -0.00042092	      0.00000000	      0.00000000	      0.00000000	      0.00000000	      0.00000000	      0.00000000	      0.00000000	      0.00000000	      0.00000000	      0.00000000	      0.00000000	      0.00000000	      0.00000000	      0.00000000	      0.00000000	      0.00000000	      0.00000000	      0.00000000	      0.00000000	      0.00000000	      0.00000000
      1.13500000	     16.04341357	     -4.77929833	      5.93035538	      0.28778264	      0.73402847	      0.59115773	      6.14620596	      7.91811964	      3.17850216	    -27.67714880	     -5.00000000	      1.31549799	      4.96336034	     -5.00000000	      5.00000000	    -10.52225071	     12.27544694	     -2.00000000	     -2.00000000	    -11.28293008	     -6.07367949	      7.15803085	    -63.74125476	      5.00000000	     -0.59740185	     -0.62311600	      1.52319002	      5.00000000	      3.12882512	     29.74295063	      2.00000000	     -1.25408421	    -29.93285854	      8.69679353	     -9.81254115	      0.00000000	      0.00000000	      0.00000000	      0.00000000	      0.00000000	      0.00000000	      0.00000000	      0.00000000	      0.00000000	     -0.00042092	      0.00000000	      0.00000000	      0.00000000	      0.00000000	      0.00000000	      0.00000000	      0.00000000	      0.00000000	      0.00000000	      0.00000000	      0.00000000	      0.00000000	      0.00000000	      0.00000000	      0.00000000	      0.00000000	      0.00000000	      0.00000000	      0.00000000	      0.00000000	      0.00000000
      1.14000000	     16.09238540	     -4.55508504	      6.00886299	      0.29354648	      0.73610244	      0.59201977	      5.21686659	      8.00130239	      3.43605434	    -27.08114536	     -5.00000000	      1.09578016	      5.00063012	     -5.00000000	      5.00000000	    -10.53849427	     12.25486465	     -2.00000000	     -2.00000000	    -10.06606051	     -5.83110816	      7.07410846	    -64.40388170	      5.00000000	     -0.62870213	     -0.57309940	      1.57581932	      5.00000000	      3.02862994	     29.72416029	      2.00000000	     -1.24728131	    -30.07417162	      8.22925023	     -9.65404125	      0.00000000	      0.00000000	      0.00000000	      0.00000000	      0.00000000	      0.00000000	      0.00000000	      0.00000000	      0.00000000	     -0.00042092	      0.00000000	      0.00000000	      0.00000000	      0.00000000	      0.00000000	      0.00000000	      0.00000000	      0.00000000	      0.00000000	      0.00000000	      0.00000000	      0.00000000	      0.00000000	      0.00000000	      0.00000000	      0.00000000	      0.00000000	      0.00000000	      0.00000000	      0.00000000	      0.00000000
      1.14500000	     16.09874443	     -4.29586103	      6.08115371	      0.29937342	      0.73818458	      0.59276318	      4.27928397	      8.02652360	      3.62291964	    -26.40174160	     -5.00000000	      0.83437816	      5.07116718	     -5.00000000	      5.00000000	    -10.59861272	     12.23349082	     -2.00000000	     -2.00000000	     -8.84632499	     -5.49568761	      7.02894565	    -64.92420789	      5.00000000	     -0.65792383	     -0.43428710	      1.59468075	      5.00000000	      2.92873117	     29.70689854	      2.00000000	     -1.24108208	    -30.11786455	      7.79226427	     -9.41978170	      0.00000000	      0.00000000	      0.00000000	      0.00000000	      0.00000000	      0.00000000	      0.00000000	      0.00000000	      0.00000000	     -0.00042092	      0.00000000	      0.00000000	      0.00000000	      0.00000000	      0.00000000	      0.00000000	      0.00000000	      0.00000000	      0.00000000	      0.00000000	      0.00000000	      0.00000000	      0.00000000	      0.00000000	      0.00000000	      0.00000000	      0.00000000	      0.00000000	      0.00000000	      0.00000000	      0.00000000
      1.15000000	     15.96095557	     -3.90574866	      6.21500137	      0.30556087	      0.74032867	      0.59316825	      3.33416920	      7.85444314	      3.66866533	    -25.51618791	     -5.00000000	      0.52342050	      5.17864314	     -5.00000000	      5.00000000	    -10.79637985	     12.17895365	     -2.00000000	     -2.00000000	     -7.60101698	     -4.95929888	      7.11821437	    -65.17570183	      5.00000000	     -0.71499080	     -0.07376739	      1.52222307	      5.00000000	      2.77789994	     29.66193743	      2.00000000	     -1.22394582	    -29.83187938	      7.27070107	     -9.06873866	      0.00000000	      0.00000000	      0.00000000	      0.00000000	      0.00000000	      0.00000000	      0.00000000	      0.00000000	      0.00000000	     -0.00042092	      0.00000000	      0.00000000	      0.00000000	      0.00000000	      0.00000000	      0.00000000	      0.00000000	      0.00000000	      0.00000000	      0.00000000	      0.00000000	      0.00000000	      0.00000000	      0.00000000	      0.00000000	      0.00000000	      0.00000000	      0.00000000	      0.00000000	      0.00000000	      0.00000000
      1.15500000	     15.14687725	     -3.54851424	      6.44045016	      0.31105290	      0.74148838	      0.59377239	      3.43876699	      7.56600340	      3.66776762	    -25.09100115	     -5.00000000	      0.47863739	      5.34732774	     -5.00000000	      5.00000000	    -11.46746048	     11.31557794	     -2.00000000	     -2.00000000	     -5.32578060	     -4.50726753	      8.16589582	    -65.80657072	      5.00000000	     -1.69921961	      0.21915750	      1.06568510	      5.00000000	      1.52988045	     28.79790603	      2.00000000	     -0.88083318	    -28.98814770	      6.71992663	     -9.08209146	      0.00000000	      0.00000000	      0.00000000	      0.00000000	      0.00000000	      0.00000000	      0.00000000	      0.00000000	      0.00000000	     -0.00042092	      0.00000000	      0.00000000	      0.00000000	      0.00000000	      0.00000000	      0.00000000	      0.00000000	      0.00000000	      0.00000000	      0.00000000	      0.00000000	      0.00000000	      0.00000000	      0.00000000	      0.00000000	      0.00000000	      0.00000000	      0.00000000	      0.00000000	      0.00000000	      0.00000000
      1.16000000	     15.10972675	     -3.21360533	      6.56284776	      0.31694455	      0.74355392	      0.59428499	      2.42909035	      7.39832431	      3.74902726	    -24.22629109	     -5.00000000	      0.29998101	      5.41777763	     -5.00000000	      5.00000000	    -11.46883534	     11.27228251	     -2.00000000	     -2.00000000	     -4.15901745	     -4.08540220	      8.10759699	    -65.91889503	      5.00000000	     -1.74697235	      0.48169140	      0.99383350	      5.00000000	      1.49384526	     28.76505894	      2.00000000	     -0.86867963	    -28.97712916	      6.24775712	     -8.85753689	      0.00000000	      0.00000000	      0.00000000	      0.00000000	      0.00000000	      0.00000000	      0.00000000	      0.00000000	      0.00000000	     -0.00042092	      0.00000000	      0.00000000	      0.00000000	      0.00000000	      0.00000000	      0.00000000	      0.00000000	      0.00000000	      0.00000000	      0.00000000	      0.00000000	      0.00000000	      0.00000000	      0.00000000	      0.00000000	      0.00000000	      0.00000000	      0.00000000	      0.00000000	      0.00000000	      0.00000000
      1.16500000	     15.02712071	     -2.82615032	      6.68359386	      0.32287035	      0.74550156	      0.59477595	      1.44983206	      7.13146559	      3.70815852	    -23.33924027	     -5.00000000	      0.15208253	      5.50066373	     -5.00000000	      5.00000000	    -11.46531855	     11.22881394	     -2.00000000	     -2.00000000	     -2.98071187	     -3.59515430	      8.03343081	    -65.92432397	      5.00000000	     -1.79201683	      0.81430671	      0.91832039	      5.00000000	      1.46242533	     28.73410215	      2.00000000	     -0.85731197	    -28.91794725	      5.71482365	     -8.63497579	      0.00000000	      0.00000000	      0.00000000	      0.00000000	      0.00000000	      0.00000000	      0.00000000	      0.00000000	      0.00000000	     -0.00042092	      0.00000000	      0.00000000	      0.00000000	      0.00000000	      0.00000000	      0.00000000	      0.00000000	      0.00000000	      0.00000000	      0.00000000	      0.00000000	      0.00000000	      0.00000000	      0.00000000	      0.00000000	      0.00000000	      0.00000000	      0.00000000	      0.00000000	      0.00000000	      0.00000000
      1.17000000	     14.91053464	     -2.39698330	      6.80914702	      0.32885326	      0.74733014	      0.59521130	      0.48391024	      6.78507968	      3.59998516	    -22.43329190	     -5.00000000	      0.03007068	      5.59193428	     -5.00000000	      5.00000000	    -11.42754469	     11.18195212	     -2.00000000	     -2.00000000	     -1.79994000	     -3.04772852	      7.94983955	    -65.84242735	      5.00000000	     -1.82545395	      1.18563115	      0.83760249	      5.00000000	      1.44826636	     28.70083347	      2.00000000	     -0.84498771	    -28.78961264	      5.13591375	     -8.44616825	      0.00000000	      0.00000000	      0.00000000	      0.00000000	      0.00000000	      0.00000000	      0.00000000	      0.00000000	      0.00000000	     -0.00042092	      0.00000000	      0.00000000	      0.00000000	      0.00000000	      0.00000000	      0.00000000	      0.00000000	      0.00000000	      0.00000000	      0.00000000	      0.00000000	      0.00000000	      0.00000000	      0.00000000	      0.00000000	      0.00000000	      0.00000000	      0.00000000	      0.00000000	      0.00000000	      0.00000000
